<?xml version="1.0" encoding="utf-8"?>
<!-- Generator: Adobe Illustrator 27.6.1, SVG Export Plug-In . SVG Version: 6.00 Build 0)  -->
<svg version="1.1" id="Слой_1" xmlns="http://www.w3.org/2000/svg" xmlns:xlink="http://www.w3.org/1999/xlink" x="0px" y="0px"
	 viewBox="0 0 112 112" style="enable-background:new 0 0 112 112;" xml:space="preserve">
<style type="text/css">
	.st0{fill:#FFCE00;}
	.st1{fill:#333333;}
	.st2{fill:#FFFFFF;}
</style>
<g>
	<rect x="0.5" y="-0.1" class="st0" width="112" height="112"/>
	<g>
		<path class="st1" d="M28.9,47.3v-1.2c0-0.3-0.3-0.6-0.9-0.7c-0.5-0.1-0.9-0.2-1.3-0.2h-6.6v3.2h6.6C28.2,48.4,28.9,48,28.9,47.3
			L28.9,47.3z M31.4,47.4c0,1.2-0.5,2-1.6,2.6c-0.8,0.4-1.9,0.6-3.2,0.6h-6.5v3.9h-2.5V43h9c1.1,0,2.1,0.2,3,0.5
			c1.2,0.5,1.7,1.2,1.7,2.2V47.4z"/>
		<path class="st1" d="M43.5,47.3V46c0-0.5-0.7-0.8-2.1-0.8h-6.6v2.9h7C43,48.1,43.5,47.8,43.5,47.3z M46.1,54.5h-4.5l-6.8-3.9v3.9
			h-2.5V43h8.7c1.3,0,2.3,0.2,3.2,0.6c1.1,0.5,1.7,1.3,1.7,2.5v1.3c0,1.1-0.5,1.9-1.6,2.4c-0.8,0.4-1.8,0.6-3,0.6h-2.9L46.1,54.5
			L46.1,54.5z"/>
		<path class="st2" d="M58.3,51.2v-4.9c0-0.7-0.9-1.1-2.7-1.1h-3.1c-1.8,0-2.7,0.4-2.7,1.1v4.9c0,0.7,0.9,1.1,2.7,1.1h3.1
			C57.4,52.2,58.3,51.9,58.3,51.2L58.3,51.2z M60.7,51.2c0,2.1-1.7,3.2-5.2,3.2h-3c-1.3,0-2.5-0.2-3.3-0.6c-1.2-0.5-1.8-1.4-1.8-2.6
			v-5c0-2.1,1.7-3.2,5.2-3.2h3c1.5,0,2.7,0.2,3.4,0.5c1.2,0.5,1.7,1.4,1.7,2.7V51.2L60.7,51.2z"/>
		<path class="st2" d="M64.3,53.3c0,0.4-0.1,0.7-0.4,0.9c-0.2,0.2-0.5,0.3-0.8,0.3c-0.3,0-0.6-0.1-0.8-0.3c-0.2-0.2-0.4-0.5-0.4-0.9
			c0-0.4,0.1-0.7,0.4-0.9c0.2-0.2,0.5-0.3,0.8-0.3s0.6,0.1,0.8,0.3C64.1,52.6,64.3,52.9,64.3,53.3z"/>
		<polygon class="st1" points="31.4,68.7 28.9,68.7 28.9,64.1 20.1,64.1 20.1,68.7 17.6,68.7 17.6,57.2 20.1,57.2 20.1,61.9 
			28.9,61.9 28.9,57.2 31.4,57.2 		"/>
		<path class="st1" d="M46.1,65.4c0,1.3-0.6,2.3-1.9,2.8c-0.8,0.3-2,0.5-3.6,0.5h-2.7c-1.6,0-2.8-0.2-3.6-0.5
			c-1.2-0.5-1.8-1.5-1.8-2.9v-8.1h2.5v8c0,0.9,0.9,1.3,2.7,1.3H41c1.8,0,2.7-0.4,2.7-1.3v-8h2.4V65.4z"/>
		<path class="st1" d="M56.8,63.6l-2.3-3.4l-2.3,3.4H56.8z M63.1,68.8h-2.8l-2-3h-7.6l-2,3h-2.9l7.3-10.7c0.4-0.5,0.8-0.8,1.4-0.8
			c0.6,0,1,0.3,1.4,0.8L63.1,68.8L63.1,68.8z"/>
		<polygon class="st1" points="77.1,68.7 74.6,68.7 74.6,64.1 65.8,64.1 65.8,68.7 63.3,68.7 63.3,57.2 65.8,57.2 65.8,61.9 
			74.6,61.9 74.6,57.2 77.1,57.2 77.1,68.7 		"/>
		<rect x="78.2" y="57.2" class="st1" width="2.5" height="11.5"/>
		<path class="st1" d="M95.4,67.3c0,1-0.4,1.5-1.2,1.5c-0.5,0-0.9-0.2-1.4-0.6l-8.6-7.5v8.1h-2.5V58.6c0-1,0.4-1.5,1.2-1.5
			c0.5,0,1,0.2,1.5,0.7l8.5,7.4v-8.1h2.5V67.3z"/>
	</g>
</g>
</svg>
