<?xml version="1.0" encoding="utf-8"?>
<!-- Generator: Adobe Illustrator 27.6.1, SVG Export Plug-In . SVG Version: 6.00 Build 0)  -->
<svg version="1.1" id="Слой_1" xmlns="http://www.w3.org/2000/svg" xmlns:xlink="http://www.w3.org/1999/xlink" x="0px" y="0px"
	 viewBox="0 0 128 128" style="enable-background:new 0 0 128 128;" xml:space="preserve">
<style type="text/css">
	.st0{fill:#FFCE00;}
	.st1{fill:#333333;}
	.st2{fill:#FFFFFF;}
</style>
<g>
	<rect x="0.5" y="-0.1" class="st0" width="128" height="128"/>
	<g>
		<path class="st1" d="M33,54.1v-1.4c0-0.4-0.4-0.7-1.1-0.9c-0.5-0.2-1-0.2-1.5-0.2h-7.5v3.7h7.5C32.1,55.3,33,54.9,33,54.1L33,54.1
			z M35.8,54.1c0,1.3-0.6,2.3-1.9,2.9c-0.9,0.4-2.1,0.7-3.6,0.7h-7.4v4.5h-2.8V49.2h10.3c1.3,0,2.4,0.2,3.4,0.6c1.3,0.5,2,1.4,2,2.5
			V54.1z"/>
		<path class="st1" d="M49.7,54.1v-1.6c0-0.6-0.8-0.9-2.5-0.9h-7.5V55h8C49,55,49.7,54.7,49.7,54.1z M52.6,62.3h-5.1l-7.7-4.4v4.4
			h-2.8V49.2h10c1.5,0,2.7,0.2,3.6,0.6c1.3,0.6,2,1.5,2,2.8v1.5c0,1.2-0.6,2.1-1.8,2.7c-0.9,0.4-2,0.6-3.4,0.6h-3.3L52.6,62.3
			L52.6,62.3z"/>
		<path class="st2" d="M66.5,58.5v-5.6c0-0.8-1-1.3-3.1-1.3H60c-2.1,0-3.1,0.4-3.1,1.3v5.6c0,0.8,1,1.2,3.1,1.2h3.5
			C65.5,59.7,66.5,59.3,66.5,58.5L66.5,58.5z M69.3,58.6c0,2.4-2,3.6-5.9,3.6H60c-1.5,0-2.8-0.2-3.8-0.7c-1.4-0.6-2.1-1.6-2.1-3
			v-5.7c0-2.4,2-3.7,5.9-3.7h3.4c1.7,0,3.1,0.2,3.9,0.6c1.3,0.6,2,1.6,2,3.1V58.6L69.3,58.6z"/>
		<path class="st2" d="M73.4,60.9c0,0.4-0.2,0.8-0.5,1c-0.3,0.2-0.6,0.4-0.9,0.4c-0.4,0-0.7-0.1-0.9-0.4c-0.3-0.3-0.4-0.6-0.4-1.1
			s0.1-0.8,0.4-1.1c0.3-0.2,0.6-0.4,0.9-0.4s0.7,0.1,0.9,0.4C73.2,60.1,73.4,60.5,73.4,60.9z"/>
		<polygon class="st1" points="35.8,78.6 33,78.6 33,73.3 22.9,73.3 22.9,78.6 20.1,78.6 20.1,65.4 22.9,65.4 22.9,70.8 33,70.8 
			33,65.4 35.8,65.4 		"/>
		<path class="st1" d="M52.6,74.7c0,1.5-0.7,2.6-2.2,3.2c-1,0.4-2.3,0.6-4.1,0.6h-3.1c-1.9,0-3.2-0.2-4.1-0.5
			c-1.4-0.6-2.1-1.7-2.1-3.3v-9.3h2.8v9.1c0,1,1,1.5,3.1,1.5h3.8c2,0,3-0.5,3-1.5v-9.2h2.8V74.7z"/>
		<path class="st1" d="M64.9,72.8l-2.7-3.9l-2.6,3.9H64.9z M72.1,78.6h-3.2l-2.3-3.4h-8.7l-2.3,3.4h-3.3l8.4-12.2
			c0.4-0.6,0.9-0.9,1.6-0.9c0.6,0,1.2,0.3,1.6,0.9L72.1,78.6L72.1,78.6z"/>
		<polygon class="st1" points="88,78.6 85.2,78.6 85.2,73.3 75.1,73.3 75.1,78.6 72.3,78.6 72.3,65.4 75.1,65.4 75.1,70.8 
			85.2,70.8 85.2,65.4 88,65.4 88,78.6 		"/>
		<rect x="89.3" y="65.4" class="st1" width="2.8" height="13.2"/>
		<path class="st1" d="M108.9,76.9c0,1.2-0.5,1.7-1.4,1.7c-0.5,0-1.1-0.2-1.6-0.7l-9.8-8.6v9.2h-2.8V67c0-1.1,0.4-1.7,1.3-1.7
			c0.6,0,1.2,0.2,1.8,0.7l9.7,8.5v-9.2h2.8V76.9z"/>
	</g>
</g>
</svg>
