<?xml version="1.0" encoding="utf-8"?>
<!-- Generator: Adobe Illustrator 27.6.1, SVG Export Plug-In . SVG Version: 6.00 Build 0)  -->
<svg version="1.1" id="Слой_1" xmlns="http://www.w3.org/2000/svg" xmlns:xlink="http://www.w3.org/1999/xlink" x="0px" y="0px"
	 viewBox="0 0 160 160" style="enable-background:new 0 0 160 160;" xml:space="preserve">
<style type="text/css">
	.st0{fill:#FFCE00;}
	.st1{fill:#333333;}
	.st2{fill:#FFFFFF;}
</style>
<g>
	<rect x="0.5" y="-0.1" class="st0" width="160" height="160"/>
	<g>
		<path class="st1" d="M41.1,67.6v-1.7c0-0.5-0.4-0.8-1.3-1.1c-0.6-0.2-1.3-0.3-1.9-0.3h-9.4v4.6h9.4C40,69.1,41.1,68.6,41.1,67.6
			L41.1,67.6z M44.6,67.7c0,1.7-0.8,2.9-2.3,3.7c-1.2,0.6-2.7,0.8-4.5,0.8h-9.2v5.6H25V61.5h12.9c1.6,0,3,0.2,4.2,0.7
			c1.7,0.7,2.5,1.7,2.5,3.1V67.7z"/>
		<path class="st1" d="M62,67.7v-2c0-0.8-1-1.2-3.1-1.2h-9.4v4.2h10C61.2,68.7,62,68.4,62,67.7z M65.6,77.9h-6.4l-9.7-5.5v5.5H46
			V61.5h12.5c1.8,0,3.4,0.3,4.5,0.8c1.6,0.7,2.5,1.9,2.5,3.5v1.9c0,1.5-0.8,2.7-2.3,3.4c-1.1,0.5-2.5,0.8-4.2,0.8h-4.1L65.6,77.9
			L65.6,77.9z"/>
		<path class="st2" d="M83,73.2v-7c0-1.1-1.3-1.6-3.8-1.6h-4.4c-2.6,0-3.9,0.5-3.9,1.6v7c0,1,1.3,1.5,3.9,1.5h4.4
			C81.7,74.7,83,74.2,83,73.2L83,73.2z M86.5,73.2c0,3-2.5,4.6-7.4,4.6h-4.3c-1.9,0-3.5-0.3-4.8-0.8c-1.7-0.8-2.6-2-2.6-3.7v-7.2
			c0-3.1,2.5-4.6,7.4-4.6h4.3c2.2,0,3.8,0.2,4.9,0.7c1.7,0.7,2.5,2,2.5,3.9V73.2L86.5,73.2z"/>
		<path class="st2" d="M91.6,76.2c0,0.5-0.2,1-0.6,1.3c-0.3,0.3-0.7,0.5-1.2,0.5c-0.5,0-0.8-0.1-1.2-0.4c-0.4-0.3-0.5-0.8-0.5-1.4
			c0-0.6,0.2-1,0.5-1.3c0.3-0.3,0.7-0.5,1.2-0.5c0.5,0,0.8,0.2,1.2,0.5C91.4,75.2,91.6,75.6,91.6,76.2z"/>
		<polygon class="st1" points="44.6,98.3 41.1,98.3 41.1,91.6 28.5,91.6 28.5,98.3 25,98.3 25,81.8 28.5,81.8 28.5,88.5 41.1,88.5 
			41.1,81.8 44.6,81.8 		"/>
		<path class="st1" d="M65.6,93.4c0,1.9-0.9,3.3-2.7,4c-1.2,0.5-2.9,0.7-5.1,0.7H54c-2.3,0-4.1-0.2-5.1-0.7
			c-1.8-0.7-2.6-2.1-2.6-4.1V81.8h3.5v11.4c0,1.2,1.3,1.8,3.9,1.8h4.7c2.5,0,3.8-0.6,3.8-1.8V81.8h3.5V93.4z"/>
		<path class="st1" d="M81,91l-3.4-4.9L74.3,91H81z M89.9,98.3H86l-2.9-4.2H72.2l-2.8,4.2h-4.1L75.8,83c0.5-0.7,1.2-1.1,2-1.1
			c0.8,0,1.5,0.4,2,1.1L89.9,98.3L89.9,98.3z"/>
		<polygon class="st1" points="109.9,98.3 106.4,98.3 106.4,91.6 93.7,91.6 93.7,98.3 90.2,98.3 90.3,81.8 93.8,81.8 93.8,88.5 
			106.4,88.5 106.4,81.8 109.9,81.8 109.9,98.3 		"/>
		<rect x="111.5" y="81.8" class="st1" width="3.5" height="16.5"/>
		<path class="st1" d="M136,96.1c0,1.4-0.6,2.2-1.7,2.2c-0.7,0-1.4-0.3-2-0.8L120,86.7v11.6h-3.5V83.8c0-1.4,0.6-2.1,1.7-2.1
			c0.8,0,1.5,0.3,2.2,0.9l12.1,10.6V81.7h3.5V96.1z"/>
	</g>
</g>
</svg>
