<?xml version="1.0" encoding="utf-8"?>
<!-- Generator: Adobe Illustrator 27.6.1, SVG Export Plug-In . SVG Version: 6.00 Build 0)  -->
<svg version="1.1" id="Слой_1" xmlns="http://www.w3.org/2000/svg" xmlns:xlink="http://www.w3.org/1999/xlink" x="0px" y="0px"
	 viewBox="0 0 192 192" style="enable-background:new 0 0 192 192;" xml:space="preserve">
<style type="text/css">
	.st0{fill:#FFCE00;}
	.st1{fill:#333333;}
	.st2{fill:#FFFFFF;}
</style>
<g>
	<rect x="0.5" y="0" class="st0" width="192" height="192"/>
	<g>
		<path class="st1" d="M49.2,81.3v-2.1c0-0.6-0.5-1-1.6-1.3c-0.8-0.2-1.5-0.3-2.3-0.3H34.1v5.5h11.2C47.9,83.1,49.2,82.5,49.2,81.3
			L49.2,81.3z M53.4,81.4c0,2-0.9,3.5-2.8,4.4c-1.4,0.7-3.2,1-5.4,1H34.1v6.7h-4.2V73.9h15.4c1.9,0,3.6,0.3,5.1,0.9
			c2,0.8,3,2.1,3,3.7V81.4z"/>
		<path class="st1" d="M74.3,81.3V79c0-0.9-1.2-1.4-3.7-1.4H59.4v5h12C73.3,82.6,74.3,82.2,74.3,81.3z M78.6,93.6H71L59.4,87v6.6
			h-4.2V73.9h15c2.2,0,4,0.3,5.4,0.9c2,0.9,3,2.3,3,4.2v2.2c0,1.8-0.9,3.2-2.7,4c-1.4,0.6-3,1-5.1,1h-4.9L78.6,93.6L78.6,93.6z"/>
		<path class="st2" d="M99.5,87.9v-8.4c0-1.3-1.5-1.9-4.6-1.9h-5.3c-3.1,0-4.6,0.6-4.6,1.9v8.4c0,1.2,1.5,1.8,4.6,1.8h5.3
			C98,89.7,99.5,89.1,99.5,87.9L99.5,87.9z M103.7,88c0,3.6-3,5.5-8.9,5.5h-5.2c-2.3,0-4.2-0.3-5.7-1c-2.1-0.9-3.1-2.4-3.1-4.5v-8.6
			c0-3.7,3-5.5,8.8-5.5h5.2c2.6,0,4.6,0.3,5.9,0.8c2,0.8,3,2.4,3,4.7V88L103.7,88z"/>
		<path class="st2" d="M109.8,91.5c0,0.6-0.2,1.2-0.7,1.6c-0.4,0.4-0.9,0.5-1.4,0.5c-0.5,0-1-0.2-1.4-0.5c-0.4-0.4-0.6-0.9-0.6-1.6
			s0.2-1.2,0.6-1.6c0.4-0.4,0.8-0.5,1.4-0.5c0.5,0,1,0.2,1.4,0.6C109.6,90.3,109.8,90.9,109.8,91.5z"/>
		<polygon class="st1" points="53.4,118 49.3,118 49.3,110.1 34.1,110.1 34.1,118 29.9,118 29.9,98.3 34.1,98.3 34.1,106.4 
			49.3,106.4 49.3,98.3 53.4,98.3 		"/>
		<path class="st1" d="M78.6,112.2c0,2.3-1.1,3.9-3.2,4.8c-1.4,0.6-3.5,0.9-6.1,0.9h-4.6c-2.8,0-4.9-0.3-6.2-0.8
			c-2.1-0.9-3.2-2.5-3.2-4.9v-14h4.2V112c0,1.5,1.6,2.2,4.7,2.2h5.7c3,0,4.6-0.7,4.6-2.2V98.3h4.2V112.2z"/>
		<path class="st1" d="M97.1,109.3l-4-5.8l-3.9,5.8H97.1z M107.8,118.1h-4.7l-3.5-5.1h-13l-3.4,5.1h-5l12.6-18.4
			c0.6-0.9,1.4-1.3,2.4-1.3s1.8,0.4,2.3,1.3L107.8,118.1L107.8,118.1z"/>
		<polygon class="st1" points="131.7,118 127.6,118 127.6,110.1 112.4,110.1 112.4,118 108.2,118 108.2,98.3 112.4,98.3 
			112.4,106.4 127.6,106.4 127.6,98.3 131.8,98.3 131.8,118 		"/>
		<rect x="133.7" y="98.3" class="st1" width="4.2" height="19.8"/>
		<path class="st1" d="M163.1,115.5c0,1.7-0.7,2.6-2.1,2.6c-0.8,0-1.6-0.3-2.4-1l-14.7-12.9v13.9h-4.2v-17.4c0-1.7,0.7-2.5,2-2.5
			c0.9,0,1.8,0.4,2.6,1.1l14.5,12.7V98.2h4.2V115.5z"/>
	</g>
</g>
</svg>
