<?xml version="1.0" encoding="utf-8"?>
<!-- Generator: Adobe Illustrator 27.6.1, SVG Export Plug-In . SVG Version: 6.00 Build 0)  -->
<svg version="1.1" id="Слой_1" xmlns="http://www.w3.org/2000/svg" xmlns:xlink="http://www.w3.org/1999/xlink" x="0px" y="0px"
	 viewBox="0 0 224 224" style="enable-background:new 0 0 224 224;" xml:space="preserve">
<style type="text/css">
	.st0{fill:#FFCE00;}
	.st1{fill:#333333;}
	.st2{fill:#FFFFFF;}
</style>
<g>
	<rect x="0.5" y="-0.1" class="st0" width="224" height="224"/>
	<g>
		<path class="st1" d="M57.3,94.7v-2.4c0-0.6-0.6-1.1-1.9-1.5c-0.9-0.3-1.8-0.4-2.7-0.4H39.7v6.4h13.1
			C55.8,96.8,57.3,96.1,57.3,94.7L57.3,94.7z M62.2,94.8c0,2.4-1.1,4.1-3.3,5.1c-1.6,0.8-3.7,1.2-6.3,1.2H39.7v7.9h-4.9V86.1h18
			c2.3,0,4.2,0.3,5.9,1c2.3,0.9,3.5,2.4,3.5,4.3V94.8z"/>
		<path class="st1" d="M86.6,94.8V92c0-1.1-1.4-1.6-4.3-1.6H69.2v5.9h14C85.4,96.3,86.6,95.8,86.6,94.8z M91.6,109.1h-8.9l-13.5-7.7
			v7.7h-4.9v-23h17.5c2.6,0,4.7,0.4,6.4,1.1c2.3,1,3.4,2.7,3.4,4.9v2.6c0,2.1-1.1,3.7-3.2,4.7c-1.6,0.7-3.5,1.1-5.9,1.1h-5.7
			L91.6,109.1L91.6,109.1z"/>
		<path class="st2" d="M116,102.5v-9.9c0-1.5-1.8-2.2-5.3-2.2h-6.1c-3.6,0-5.4,0.7-5.4,2.2v9.8c0,1.4,1.8,2.1,5.4,2.1h6.1
			C114.2,104.6,116,103.9,116,102.5L116,102.5z M120.9,102.6c0,4.2-3.4,6.4-10.4,6.4h-6c-2.7,0-4.9-0.4-6.7-1.2
			c-2.4-1.1-3.6-2.8-3.6-5.2v-10c0-4.3,3.4-6.4,10.3-6.4h6c3,0,5.3,0.3,6.9,1c2.3,1,3.5,2.8,3.5,5.5V102.6L120.9,102.6z"/>
		<path class="st2" d="M128,106.7c0,0.7-0.3,1.3-0.8,1.8c-0.5,0.4-1,0.6-1.6,0.6c-0.6,0-1.2-0.2-1.6-0.6c-0.5-0.5-0.7-1.1-0.7-1.9
			c0-0.8,0.2-1.4,0.7-1.9c0.5-0.4,1-0.6,1.6-0.6s1.2,0.2,1.6,0.7C127.8,105.3,128,105.9,128,106.7z"/>
		<polygon class="st1" points="62.3,137.6 57.4,137.6 57.4,128.3 39.7,128.3 39.7,137.6 34.8,137.6 34.8,114.5 39.7,114.5 39.7,124 
			57.4,124 57.4,114.5 62.3,114.5 		"/>
		<path class="st1" d="M91.6,130.8c0,2.7-1.3,4.6-3.8,5.6c-1.7,0.7-4.1,1-7.1,1h-5.4c-3.3,0-5.7-0.3-7.2-0.9c-2.5-1-3.7-2.9-3.7-5.7
			v-16.3h4.9v16c0,1.7,1.8,2.6,5.4,2.6h6.6c3.5,0,5.3-0.8,5.3-2.6v-16h4.9V130.8z"/>
		<path class="st1" d="M113.1,127.4l-4.7-6.8l-4.6,6.8H113.1z M125.7,137.7h-5.5l-4.1-5.9h-15.2l-4,5.9h-5.8l14.7-21.4
			c0.7-1,1.6-1.6,2.7-1.6c1.1,0,2.1,0.5,2.7,1.5L125.7,137.7L125.7,137.7z"/>
		<polygon class="st1" points="153.6,137.6 148.7,137.6 148.7,128.3 131,128.3 131,137.6 126.1,137.6 126.2,114.5 131.1,114.5 
			131.1,124 148.8,124 148.8,114.5 153.6,114.5 153.6,137.6 		"/>
		<rect x="155.9" y="114.5" class="st1" width="4.9" height="23.1"/>
		<path class="st1" d="M190.2,134.6c0,2-0.8,3-2.4,3c-1,0-1.9-0.4-2.8-1.2l-17.2-15v16.2h-4.9v-20.2c0-1.9,0.8-2.9,2.3-2.9
			c1.1,0,2.1,0.4,3.1,1.3l17,14.8v-16.1h4.9V134.6z"/>
	</g>
</g>
</svg>
