<?xml version="1.0" encoding="utf-8"?>
<!-- Generator: Adobe Illustrator 27.6.1, SVG Export Plug-In . SVG Version: 6.00 Build 0)  -->
<svg version="1.1" id="Слой_1" xmlns="http://www.w3.org/2000/svg" xmlns:xlink="http://www.w3.org/1999/xlink" x="0px" y="0px"
	 viewBox="0 0 256 256" style="enable-background:new 0 0 256 256;" xml:space="preserve">
<style type="text/css">
	.st0{fill:#FFCE00;}
	.st1{fill:#333333;}
	.st2{fill:#FFFFFF;}
</style>
<g>
	<rect x="1" y="1" class="st0" width="254" height="254"/>
	<g>
		<path class="st1" d="M65.4,108.5v-2.8c0-0.7-0.7-1.3-2.1-1.7c-1-0.3-2-0.4-3-0.4H45.4v7.3h14.9C63.7,110.9,65.4,110.1,65.4,108.5
			L65.4,108.5z M71,108.7c0,2.7-1.2,4.6-3.7,5.8c-1.8,0.9-4.2,1.3-7.2,1.3H45.4v8.9h-5.6v-26h20.4c2.6,0,4.8,0.4,6.7,1.2
			c2.6,1.1,4,2.7,4,4.9V108.7z"/>
		<path class="st1" d="M98.6,108.6v-3.1c0-1.2-1.6-1.9-4.9-1.9H78.9v6.7h15.9C97.3,110.3,98.6,109.7,98.6,108.6z M104.3,124.8H94.2
			l-15.4-8.7v8.7h-5.6V98.8h19.8c2.9,0,5.3,0.4,7.2,1.3c2.6,1.2,3.9,3,3.9,5.6v3c0,2.4-1.2,4.2-3.6,5.3c-1.8,0.9-4,1.3-6.7,1.3h-6.5
			L104.3,124.8L104.3,124.8z"/>
		<path class="st2" d="M132,117.3v-11.2c0-1.7-2-2.5-6.1-2.5H119c-4.1,0-6.1,0.8-6.1,2.5v11.2c0,1.6,2,2.4,6.1,2.4h7
			C130,119.7,132,118.9,132,117.3L132,117.3z M137.6,117.4c0,4.8-3.9,7.2-11.7,7.2H119c-3.1,0-5.6-0.4-7.6-1.3
			c-2.7-1.2-4.1-3.2-4.1-5.9V106c0-4.9,3.9-7.3,11.7-7.3h6.8c3.5,0,6.1,0.4,7.8,1.1c2.6,1.1,4,3.2,4,6.2V117.4L137.6,117.4z"/>
		<path class="st2" d="M145.6,122.1c0,0.8-0.3,1.5-0.9,2.1c-0.5,0.5-1.1,0.7-1.8,0.7c-0.7,0-1.3-0.2-1.8-0.7
			c-0.6-0.5-0.9-1.2-0.9-2.1s0.3-1.6,0.8-2.1c0.5-0.5,1.1-0.7,1.8-0.7c0.7,0,1.3,0.2,1.8,0.8C145.3,120.5,145.6,121.2,145.6,122.1z"
			/>
		<polygon class="st1" points="71,157.1 65.5,157.1 65.5,146.7 45.4,146.7 45.4,157.1 39.9,157.1 39.9,131 45.4,131 45.4,141.7 
			65.5,141.7 65.5,131 71,131 		"/>
		<path class="st1" d="M104.3,149.5c0,3.1-1.4,5.2-4.3,6.4c-1.9,0.8-4.6,1.2-8.1,1.2h-6.1c-3.7,0-6.4-0.3-8.2-1.1
			c-2.8-1.1-4.2-3.3-4.2-6.5V131h5.6v18.2c0,2,2.1,2.9,6.2,2.9h7.5c4,0,6-1,6-2.9V131h5.5V149.5z"/>
		<path class="st1" d="M128.7,145.6l-5.3-7.7l-5.2,7.7H128.7z M143,157.2h-6.3l-4.6-6.7h-17.2l-4.5,6.7h-6.6l16.7-24.3
			c0.8-1.2,1.8-1.8,3.1-1.8s2.3,0.6,3.1,1.7L143,157.2L143,157.2z"/>
		<polygon class="st1" points="174.6,157.1 169.1,157.1 169.1,146.7 149,146.7 149,157.1 143.5,157.1 143.5,131 149.1,131 
			149.1,141.7 169.1,141.7 169.1,131 174.6,131 174.6,157.1 		"/>
		<rect x="177.2" y="131" class="st1" width="5.6" height="26.2"/>
		<path class="st1" d="M216.1,153.8c0,2.3-0.9,3.4-2.7,3.4c-1.1,0-2.2-0.4-3.2-1.3l-19.5-17v18.3h-5.6v-23c0-2.2,0.9-3.3,2.7-3.3
			c1.2,0,2.3,0.5,3.5,1.5l19.2,16.8v-18.3h5.6V153.8z"/>
	</g>
</g>
</svg>
