<?xml version="1.0" encoding="utf-8"?>
<!-- Generator: Adobe Illustrator 27.6.1, SVG Export Plug-In . SVG Version: 6.00 Build 0)  -->
<svg version="1.1" id="Слой_1" xmlns="http://www.w3.org/2000/svg" xmlns:xlink="http://www.w3.org/1999/xlink" x="0px" y="0px"
	 viewBox="0 0 64 64" style="enable-background:new 0 0 64 64;" xml:space="preserve">
<style type="text/css">
	.st0{fill:#FFCE00;}
	.st1{fill:#333333;}
	.st2{fill:#FFFFFF;}
</style>
<g>
	<rect y="0" class="st0" width="64" height="64"/>
	<g>
		<path class="st1" d="M16.2,27.1v-0.7c0-0.2-0.2-0.3-0.5-0.4c-0.3-0.1-0.5-0.1-0.8-0.1h-3.7v1.8h3.7C15.8,27.7,16.2,27.5,16.2,27.1
			L16.2,27.1z M17.6,27.1c0,0.7-0.3,1.2-0.9,1.5c-0.5,0.2-1.1,0.3-1.8,0.3h-3.7v2.2H9.8v-6.5h5.1c0.6,0,1.2,0.1,1.7,0.3
			c0.7,0.3,1,0.7,1,1.2V27.1z"/>
		<path class="st1" d="M24.6,27.1v-0.8c0-0.3-0.4-0.5-1.2-0.5h-3.7v1.7h4C24.3,27.5,24.6,27.4,24.6,27.1z M26,31.2h-2.6L19.6,29v2.2
			h-1.4v-6.6h5c0.7,0,1.3,0.1,1.8,0.3c0.7,0.3,1,0.8,1,1.4v0.7c0,0.6-0.3,1.1-0.9,1.3c-0.5,0.2-1,0.3-1.7,0.3h-1.6L26,31.2L26,31.2z
			"/>
		<path class="st2" d="M33,29.3v-2.8c0-0.4-0.5-0.6-1.5-0.6h-1.8c-1,0-1.5,0.2-1.5,0.6v2.8c0,0.4,0.5,0.6,1.5,0.6h1.8
			C32.5,29.9,33,29.7,33,29.3L33,29.3z M34.4,29.3c0,1.2-1,1.8-3,1.8h-1.7c-0.8,0-1.4-0.1-1.9-0.3c-0.7-0.3-1-0.8-1-1.5v-2.9
			c0-1.2,1-1.8,2.9-1.8h1.7c0.9,0,1.5,0.1,2,0.3c0.7,0.3,1,0.8,1,1.6V29.3L34.4,29.3z"/>
		<path class="st2" d="M36.4,30.5c0,0.2-0.1,0.4-0.2,0.5c-0.1,0.1-0.3,0.2-0.5,0.2c-0.2,0-0.3-0.1-0.5-0.2c-0.1-0.1-0.2-0.3-0.2-0.5
			s0.1-0.4,0.2-0.5c0.1-0.1,0.3-0.2,0.5-0.2s0.3,0.1,0.5,0.2C36.4,30.1,36.4,30.3,36.4,30.5z"/>
		<polygon class="st1" points="17.6,39.3 16.3,39.3 16.3,36.7 11.2,36.7 11.2,39.3 9.8,39.3 9.8,32.8 11.2,32.8 11.2,35.5 
			16.3,35.5 16.3,32.8 17.6,32.8 		"/>
		<path class="st1" d="M26,37.4c0,0.8-0.4,1.3-1.1,1.6c-0.5,0.2-1.2,0.3-2,0.3h-1.5c-0.9,0-1.6-0.1-2.1-0.3
			c-0.7-0.3-1.1-0.8-1.1-1.6v-4.7h1.4v4.6c0,0.5,0.5,0.7,1.6,0.7h1.9c1,0,1.5-0.2,1.5-0.7v-4.6H26V37.4z"/>
		<path class="st1" d="M32.2,36.4l-1.3-1.9l-1.3,1.9H32.2z M35.8,39.4h-1.6L33,37.7h-4.3l-1.1,1.7h-1.7l4.2-6.1
			c0.2-0.3,0.5-0.4,0.8-0.4c0.3,0,0.6,0.1,0.8,0.4L35.8,39.4L35.8,39.4z"/>
		<polygon class="st1" points="43.7,39.3 42.4,39.3 42.4,36.7 37.3,36.7 37.3,39.3 35.9,39.3 35.9,32.8 37.3,32.8 37.3,35.5 
			42.4,35.5 42.4,32.8 43.8,32.8 43.8,39.3 		"/>
		<rect x="44.4" y="32.8" class="st1" width="1.4" height="6.6"/>
		<path class="st1" d="M54.2,38.5c0,0.6-0.2,0.9-0.7,0.9c-0.3,0-0.5-0.1-0.8-0.3l-4.9-4.3v4.6h-1.4v-5.8c0-0.6,0.2-0.8,0.7-0.8
			c0.3,0,0.6,0.1,0.9,0.4l4.8,4.2v-4.6h1.4V38.5z"/>
	</g>
</g>
</svg>
