<?xml version="1.0" encoding="utf-8"?>
<!-- Generator: Adobe Illustrator 27.6.1, SVG Export Plug-In . SVG Version: 6.00 Build 0)  -->
<svg version="1.1" id="Слой_1" xmlns="http://www.w3.org/2000/svg" xmlns:xlink="http://www.w3.org/1999/xlink" x="0px" y="0px"
	 viewBox="0 0 80 80" style="enable-background:new 0 0 80 80;" xml:space="preserve">
<style type="text/css">
	.st0{fill:#FFCE00;}
	.st1{fill:#333333;}
	.st2{fill:#FFFFFF;}
</style>
<g>
	<rect y="0" class="st0" width="80" height="80"/>
	<g>
		<path class="st1" d="M20.3,33.9V33c0-0.2-0.2-0.4-0.7-0.5c-0.3-0.1-0.6-0.1-1-0.1H14v2.3h4.7C19.8,34.6,20.3,34.4,20.3,33.9
			L20.3,33.9z M22,33.9c0,0.8-0.4,1.5-1.2,1.8c-0.6,0.3-1.3,0.4-2.3,0.4H14V39h-1.8v-8.2h6.4c0.8,0,1.5,0.1,2.1,0.4
			c0.8,0.3,1.2,0.9,1.2,1.5V33.9z"/>
		<path class="st1" d="M30.7,33.9v-1c0-0.4-0.5-0.6-1.5-0.6h-4.7v2.1h5C30.3,34.4,30.7,34.2,30.7,33.9z M32.5,39h-3.2l-4.8-2.8V39
			h-1.8v-8.2H29c0.9,0,1.7,0.1,2.3,0.4c0.8,0.4,1.2,0.9,1.2,1.8v0.9c0,0.8-0.4,1.3-1.1,1.7c-0.6,0.3-1.3,0.4-2.1,0.4h-2L32.5,39
			L32.5,39z"/>
		<path class="st2" d="M41.3,36.6v-3.5c0-0.5-0.6-0.8-1.9-0.8h-2.2c-1.3,0-1.9,0.3-1.9,0.8v3.5c0,0.5,0.6,0.8,1.9,0.8h2.2
			C40.6,37.4,41.3,37.1,41.3,36.6L41.3,36.6z M43,36.7c0,1.5-1.2,2.3-3.7,2.3h-2.2c-1,0-1.8-0.1-2.4-0.4c-0.9-0.4-1.3-1-1.3-1.9
			v-3.6c0-1.5,1.2-2.3,3.7-2.3h2.2c1.1,0,1.9,0.1,2.4,0.3c0.8,0.4,1.2,1,1.2,2V36.7L43,36.7z"/>
		<path class="st2" d="M45.6,38.1c0,0.3-0.1,0.5-0.3,0.6c-0.2,0.1-0.4,0.2-0.6,0.2c-0.2,0-0.4-0.1-0.6-0.2c-0.2-0.2-0.3-0.4-0.3-0.7
			s0.1-0.5,0.3-0.7c0.2-0.1,0.4-0.2,0.6-0.2c0.2,0,0.4,0.1,0.6,0.2C45.5,37.6,45.6,37.9,45.6,38.1z"/>
		<polygon class="st1" points="22.1,49.2 20.3,49.2 20.3,45.9 14,45.9 14,49.2 12.2,49.2 12.2,40.9 14,40.9 14,44.3 20.3,44.3 
			20.3,40.9 22.1,40.9 		"/>
		<path class="st1" d="M32.5,46.8c0,1-0.4,1.6-1.3,2c-0.6,0.2-1.4,0.4-2.5,0.4h-1.9c-1.2,0-2-0.1-2.6-0.3c-0.9-0.4-1.3-1-1.3-2V41
			h1.8v5.7c0,0.6,0.6,0.9,1.9,0.9h2.4c1.3,0,1.9-0.3,1.9-0.9V41h1.7V46.8z"/>
		<path class="st1" d="M40.2,45.5l-1.7-2.4l-1.6,2.4H40.2z M44.7,49.2h-2l-1.5-2.1h-5.4l-1.4,2.1h-2.1l5.2-7.7
			c0.3-0.4,0.6-0.6,1-0.6c0.4,0,0.7,0.2,1,0.5L44.7,49.2L44.7,49.2z"/>
		<polygon class="st1" points="54.7,49.2 52.9,49.2 52.9,45.9 46.6,45.9 46.6,49.2 44.9,49.2 44.9,40.9 46.6,40.9 46.6,44.3 
			53,44.3 53,40.9 54.7,40.9 54.7,49.2 		"/>
		<rect x="55.5" y="40.9" class="st1" width="1.8" height="8.2"/>
		<path class="st1" d="M67.8,48.1c0,0.7-0.3,1.1-0.9,1.1c-0.3,0-0.7-0.1-1-0.4l-6.1-5.4v5.8H58V42c0-0.7,0.3-1,0.8-1
			c0.4,0,0.7,0.2,1.1,0.5l6.1,5.3v-5.8h1.8V48.1z"/>
	</g>
</g>
</svg>
