<?xml version="1.0" encoding="utf-8"?>
<!-- Generator: Adobe Illustrator 27.6.1, SVG Export Plug-In . SVG Version: 6.00 Build 0)  -->
<svg version="1.1" id="Слой_1" xmlns="http://www.w3.org/2000/svg" xmlns:xlink="http://www.w3.org/1999/xlink" x="0px" y="0px"
	 viewBox="0 0 96 96" style="enable-background:new 0 0 96 96;" xml:space="preserve">
<style type="text/css">
	.st0{fill:#FFCE00;}
	.st1{fill:#333333;}
	.st2{fill:#FFFFFF;}
</style>
<g>
	<rect x="0.5" y="-0.1" class="st0" width="96" height="96"/>
	<g>
		<path class="st1" d="M24.9,40.5v-1c0-0.3-0.3-0.5-0.8-0.6c-0.4-0.1-0.8-0.2-1.1-0.2h-5.6v2.8h5.6C24.2,41.4,24.9,41.1,24.9,40.5
			L24.9,40.5z M26.9,40.6c0,1-0.5,1.7-1.4,2.2c-0.7,0.3-1.6,0.5-2.7,0.5h-5.5v3.4h-2.1v-9.8h7.7c1,0,1.8,0.1,2.5,0.4
			c1,0.4,1.5,1,1.5,1.9V40.6z"/>
		<path class="st1" d="M37.4,40.6v-1.2c0-0.5-0.6-0.7-1.8-0.7h-5.6v2.5h6C36.9,41.2,37.4,41,37.4,40.6z M39.6,46.7h-3.8l-5.8-3.3
			v3.3h-2.1v-9.8h7.5c1.1,0,2,0.2,2.7,0.5c1,0.4,1.5,1.1,1.5,2.1v1.1c0,0.9-0.5,1.6-1.4,2c-0.7,0.3-1.5,0.5-2.5,0.5h-2.4L39.6,46.7
			L39.6,46.7z"/>
		<path class="st2" d="M50,43.9v-4.2c0-0.6-0.8-0.9-2.3-0.9h-2.6c-1.5,0-2.3,0.3-2.3,0.9v4.2c0,0.6,0.8,0.9,2.3,0.9h2.6
			C49.2,44.8,50,44.4,50,43.9L50,43.9z M52.1,43.9c0,1.8-1.5,2.7-4.4,2.7h-2.6c-1.2,0-2.1-0.2-2.9-0.5c-1-0.5-1.6-1.2-1.6-2.2v-4.3
			c0-1.8,1.5-2.8,4.4-2.8h2.6c1.3,0,2.3,0.1,2.9,0.4c1,0.4,1.5,1.2,1.5,2.3V43.9L52.1,43.9z"/>
		<path class="st2" d="M55.2,45.7c0,0.3-0.1,0.6-0.3,0.8c-0.2,0.2-0.4,0.3-0.7,0.3c-0.3,0-0.5-0.1-0.7-0.3c-0.2-0.2-0.3-0.5-0.3-0.8
			s0.1-0.6,0.3-0.8c0.2-0.2,0.4-0.3,0.7-0.3c0.3,0,0.5,0.1,0.7,0.3C55,45.1,55.2,45.3,55.2,45.7z"/>
		<polygon class="st1" points="27,58.9 24.9,58.9 24.9,54.9 17.3,54.9 17.3,58.9 15.2,58.9 15.2,49 17.3,49 17.3,53.1 24.9,53.1 
			24.9,49 27,49 		"/>
		<path class="st1" d="M39.6,56c0,1.2-0.5,2-1.6,2.4c-0.7,0.3-1.7,0.4-3.1,0.4h-2.3c-1.4,0-2.4-0.1-3.1-0.4
			c-1.1-0.4-1.6-1.2-1.6-2.5v-7H30v6.9c0,0.7,0.8,1.1,2.3,1.1h2.8c1.5,0,2.3-0.4,2.3-1.1V49h2.1V56z"/>
		<path class="st1" d="M48.8,54.5l-2-2.9l-2,2.9H48.8z M54.2,58.9h-2.4l-1.7-2.5h-6.5l-1.7,2.5h-2.5l6.3-9.2
			c0.3-0.4,0.7-0.7,1.2-0.7s0.9,0.2,1.2,0.7L54.2,58.9L54.2,58.9z"/>
		<polygon class="st1" points="66.1,58.9 64,58.9 64,54.9 56.4,54.9 56.4,58.9 54.3,58.9 54.4,49 56.5,49 56.5,53.1 64,53.1 64,49 
			66.1,49 66.1,58.9 		"/>
		<rect x="67.1" y="49" class="st1" width="2.1" height="9.9"/>
		<path class="st1" d="M81.8,57.6c0,0.9-0.3,1.3-1,1.3c-0.4,0-0.8-0.2-1.2-0.5L72.2,52v6.9h-2.1v-8.7c0-0.8,0.3-1.2,1-1.2
			c0.5,0,0.9,0.2,1.3,0.6l7.3,6.3V49h2.1V57.6z"/>
	</g>
</g>
</svg>
